<svg xmlns="http://www.w3.org/2000/svg" viewBox="0 0 24 24"><defs><style>.cls-1{fill:#fff;}</style></defs><g id="Layer_2" data-name="Layer 2"><g id="Layer_1-2" data-name="Layer 1"><circle class="cls-1" cx="12" cy="12" r="12"/><g id="Q2qvAb.tif"><path d="M18.68,15.15a3.6,3.6,0,0,1-.44.93c-.26.44-.51.89-.77,1.34,0,0,0,.09-.1.12-.37-.66-.75-1.31-1.13-2L11,6.44a1.74,1.74,0,0,1-.1-.19h2.37a1.63,1.63,0,0,1,1.15.94c1.23,2.17,2.47,4.32,3.7,6.49a5.06,5.06,0,0,1,.57,1.11Z"/><path d="M5.84,15h7.81a.22.22,0,0,1,.22.13l1.34,2.32c.08.14.08.14-.08.14h-7a1.28,1.28,0,0,1-1.2-.69c-.35-.59-.7-1.19-1-1.79Z"/><path d="M9.81,8.08l2.92,5.05H6.9Z"/></g></g></g></svg>