<svg xmlns="http://www.w3.org/2000/svg" viewBox="0 0 24 24"><defs><style>.cls-1{fill:#fff;}</style></defs><g id="Layer_2" data-name="Layer 2"><g id="Layer_1-2" data-name="Layer 1"><circle class="cls-1" cx="12" cy="12" r="12"/><path d="M17.17,7.38H16V6.81a.6.6,0,0,0-.61-.6H8.63a.6.6,0,0,0-.6.6v.57H6.83a.3.3,0,0,0-.3.31v2a.68.68,0,0,0,.22.5L8,11.35a3.94,3.94,0,0,0,3.4,3.9V16a.93.93,0,0,1-.92.93H9.11v.82h5.78V17h-1.4a.93.93,0,0,1-.93-.93v-.79A4,4,0,0,0,16,11.35l1.28-1.12a.68.68,0,0,0,.22-.5v-2A.3.3,0,0,0,17.17,7.38ZM8,10.16l-.69-.57V8.2H8Zm8.63-.57-.69.57v-2h.69Z"/></g></g></svg>