<svg xmlns="http://www.w3.org/2000/svg" viewBox="0 0 24 24"><defs><style>.cls-1{fill:#fff;}</style></defs><g id="Layer_2" data-name="Layer 2"><g id="Layer_1-2" data-name="Layer 1"><circle class="cls-1" cx="12" cy="12" r="12"/><g id="EX8mvm.tif"><path d="M5.42,16V7.84h4.3a2.51,2.51,0,0,1,.55.06,2,2,0,0,1,1.22.67A2.18,2.18,0,0,1,12,10.34a1.34,1.34,0,0,1-.78,1.09c-.11.05-.23.08-.36.13h.08a1.32,1.32,0,0,1,1.18.9,3,3,0,0,1,.11,1.78,2,2,0,0,1-1.1,1.41A3.22,3.22,0,0,1,9.65,16H5.42Zm2-3.62c-.07,0-.11,0-.11.08,0,.68,0,1.35,0,2,0,.06,0,.08.09.08.75,0,1.5,0,2.26,0a.82.82,0,0,0,.82-.58,1.62,1.62,0,0,0,0-.79.88.88,0,0,0-1-.8ZM8.52,9.28H7.4c-.06,0-.11,0-.11.09q0,.83,0,1.65c0,.07,0,.08.09.08.75,0,1.51,0,2.26,0a.52.52,0,0,0,.51-.39,1.59,1.59,0,0,0,.06-.89.61.61,0,0,0-.68-.55Z"/><path d="M16.44,13.45h-2c-.1,0-.13,0-.13.13a1.24,1.24,0,0,0,1.07,1.25,1.9,1.9,0,0,0,1.2-.13.8.8,0,0,0,.46-.63.08.08,0,0,1,.09-.08h1.27c.08,0,.08,0,.08.1a1.85,1.85,0,0,1-.95,1.65,3.11,3.11,0,0,1-1.36.4,4.29,4.29,0,0,1-1.88-.22,2.51,2.51,0,0,1-1.55-1.67,3.6,3.6,0,0,1,.36-3,2.47,2.47,0,0,1,1.34-1.1,3.65,3.65,0,0,1,2.46,0,2.27,2.27,0,0,1,1.34,1.27,4.16,4.16,0,0,1,.31,1.91c0,.11,0,.15-.16.15Zm.44-1.09c.05,0,.12,0,.11-.08a1.22,1.22,0,0,0-.58-1,1.43,1.43,0,0,0-2.07,1c0,.09,0,.12.09.12Z"/><path d="M14.1,9.33c-.11,0-.15,0-.14-.14V8.44c0-.09,0-.12.11-.12h3.14c.1,0,.12,0,.12.12,0,.25,0,.51,0,.77,0,.09,0,.12-.13.12"/></g></g></g></svg>