<svg xmlns="http://www.w3.org/2000/svg" viewBox="0 0 24 24"><defs><style>.cls-1{fill:#fff;}</style></defs><g id="Layer_2" data-name="Layer 2"><g id="Layer_1-2" data-name="Layer 1"><circle class="cls-1" cx="12" cy="12" r="12"/><path d="M12,8.74A3.26,3.26,0,1,0,15.26,12,3.26,3.26,0,0,0,12,8.74Zm0,5.33A2.07,2.07,0,1,1,14.07,12,2.07,2.07,0,0,1,12,14.07Z"/><circle cx="15.47" cy="8.35" r="0.78"/><path d="M15,18.55H9A3.55,3.55,0,0,1,5.45,15V9A3.55,3.55,0,0,1,9,5.45h6A3.55,3.55,0,0,1,18.55,9v6A3.55,3.55,0,0,1,15,18.55ZM9,6.45A2.54,2.54,0,0,0,6.45,9v6A2.54,2.54,0,0,0,9,17.55h6A2.54,2.54,0,0,0,17.55,15V9A2.54,2.54,0,0,0,15,6.45Z"/></g></g></svg>