<svg xmlns="http://www.w3.org/2000/svg" viewBox="0 0 24 24"><defs><style>.cls-1{fill:#fff;}</style></defs><g id="Layer_2" data-name="Layer 2"><g id="Layer_1-2" data-name="Layer 1"><circle class="cls-1" cx="12" cy="12" r="12"/><g id="oKfic8"><path d="M9.74,13.3V11.19c0-.08,0-.08-.07-.08H8.48c-.05,0-.07,0-.07-.07V9.33a.17.17,0,0,1,.11-.18,3.86,3.86,0,0,0,.86-.59,3.94,3.94,0,0,0,1.2-2.05,1.25,1.25,0,0,0,0-.38s0-.07.06-.06h2c.06,0,.06,0,.06.08V8.87a0,0,0,0,0,0,0h2.06c.08,0,.08,0,.08.07V11c0,.07,0,.07-.08.07h-1.9c-.08,0-.08,0-.08.08,0,1,0,1.94,0,2.92a1.3,1.3,0,0,0,.26.85.9.9,0,0,0,1.54-.1s0-.07,0-.06,0,0,.05.06a5.69,5.69,0,0,1,.26.56c.2.46.39.92.59,1.37a.12.12,0,0,1,0,.13,2.5,2.5,0,0,1-1.88,1,4.29,4.29,0,0,1-2.92-.79,2.54,2.54,0,0,1-.72-.74,2,2,0,0,1-.3-1.07c0-.67,0-1.33,0-2Z"/></g></g></g></svg>