<svg xmlns="http://www.w3.org/2000/svg" viewBox="0 0 24 24"><defs><style>.cls-1{fill:#fff;}</style></defs><g id="Layer_2" data-name="Layer 2"><g id="Layer_1-2" data-name="Layer 1"><circle class="cls-1" cx="12" cy="12" r="12"/><path d="M16.89,7.23A2.43,2.43,0,0,0,16,7.12,2.86,2.86,0,0,0,14,7.89a4.58,4.58,0,0,0-1.18,2.05L13,9.88a2.09,2.09,0,0,1,.89-.12.67.67,0,0,1,.63.58,1.76,1.76,0,0,1-.08.85,7.08,7.08,0,0,1-.83,1.56,4.32,4.32,0,0,1-.67.86c-.3.26-.51.22-.72-.11l0-.06a3.94,3.94,0,0,1-.37-1c-.28-1-.41-2.11-.6-3.17A4.07,4.07,0,0,0,10.86,8,1.3,1.3,0,0,0,9.37,7.3a2.36,2.36,0,0,0-.85.43C7.63,8.37,6.86,9.15,6,9.86c0,0,0,.07,0,.12s.31.39.46.6c0,.05.08.05.14,0l.57-.37c.33-.2.46-.18.72.11l.08.1a3.7,3.7,0,0,1,.53,1.2c.32,1.13.64,2.26.94,3.4a5,5,0,0,0,.92,2,1.32,1.32,0,0,0,1.26.53,3.23,3.23,0,0,0,1-.34,7.49,7.49,0,0,0,1.88-1.58,21.48,21.48,0,0,0,2.08-2.67,10.49,10.49,0,0,0,1.22-2.35,3.82,3.82,0,0,0,.14-2.09A1.55,1.55,0,0,0,16.89,7.23Z"/></g></g></svg>