<svg xmlns="http://www.w3.org/2000/svg" viewBox="0 0 24 24"><defs><style>.cls-1{fill:#fff;}</style></defs><g id="Layer_2" data-name="Layer 2"><g id="Layer_1-2" data-name="Layer 1"><circle class="cls-1" cx="12" cy="12" r="12"/><path d="M17.13,16.57a51.27,51.27,0,0,1-9.91,0A1.85,1.85,0,0,1,5.64,15a40.06,40.06,0,0,1,0-6A1.85,1.85,0,0,1,7.22,7.43a51.27,51.27,0,0,1,9.91,0A1.82,1.82,0,0,1,18.7,9a37.56,37.56,0,0,1,0,6A1.82,1.82,0,0,1,17.13,16.57Z"/><polygon class="cls-1" points="14.57 12 10.66 14.22 10.66 9.78 14.57 12 14.57 12"/></g></g></svg>