<svg width="259" height="259" viewBox="0 0 259 259" fill="none" xmlns="http://www.w3.org/2000/svg">
<path d="M258.293 170.102L170.102 258.293L81.633 169.749L81.2794 169.395L80.9257 169.748L0.5 250.174V0.5H250.174L169.748 80.9257L169.395 81.2794L169.749 81.633L258.293 170.102Z" stroke="#EFEFEF"/>
<path d="M40.372 43.354V25H38.503V31.447H34.408V33.022H38.503V43.354H40.372ZM36.277 37.6C33.694 36.004 31.636 33.106 31.636 29.662V26.575H29.725V29.746C29.725 33.127 27.772 36.319 25 38.062L26.176 39.427C28.234 38.062 30.061 35.731 30.691 33.484C31.384 35.626 33.526 37.915 35.164 38.986L36.277 37.6Z" fill="#EFEFEF"/>
<path d="M58.2269 43.228V41.695H46.7609V40.288H57.5339V36.046H52.1579V34.324H59.5499V32.812H42.9809V34.324H50.2889V36.046H44.8709V37.558H55.6859V38.902H44.9129V43.228H58.2269ZM57.8279 28.612C57.8279 26.554 55.3919 25.378 51.2759 25.378C47.2229 25.378 44.7449 26.554 44.7449 28.612C44.7449 30.691 47.2229 31.846 51.2759 31.846C55.3919 31.846 57.8279 30.691 57.8279 28.612ZM51.2759 26.848C54.1109 26.848 55.8959 27.541 55.8959 28.612C55.8959 29.704 54.1109 30.397 51.2759 30.397C48.4829 30.397 46.6979 29.704 46.6979 28.612C46.6979 27.541 48.4829 26.848 51.2759 26.848Z" fill="#EFEFEF"/>
<path d="M75.8928 39.889C75.8928 37.726 73.5828 36.403 69.5298 36.403C65.4978 36.403 63.1878 37.726 63.1878 39.889C63.1878 42.01 65.4978 43.333 69.5298 43.333C73.5828 43.333 75.8928 42.01 75.8928 39.889ZM70.3068 30.565C70.3068 27.94 68.1438 26.155 65.5608 26.155C62.9358 26.155 60.7938 27.961 60.7938 30.565C60.7938 33.232 62.9568 34.912 65.5608 34.912C68.1648 34.912 70.3068 33.211 70.3068 30.565ZM70.8108 33.337H73.9188V36.382H75.7878V25H73.9188V27.415H70.8108C70.8108 27.94 70.8318 28.465 70.8318 28.99H73.9188V31.783H70.8318C70.8318 32.287 70.8108 32.812 70.8108 33.337ZM73.9608 39.889C73.9608 41.107 72.3228 41.842 69.5298 41.842C66.7788 41.842 65.1408 41.107 65.1408 39.889C65.1408 38.65 66.7788 37.894 69.5298 37.894C72.3228 37.894 73.9608 38.65 73.9608 39.889ZM68.4168 30.565C68.4168 32.224 67.2618 33.4 65.5608 33.4C63.8598 33.4 62.6628 32.224 62.6628 30.544C62.6628 28.948 63.8598 27.751 65.5608 27.751C67.3248 27.751 68.4168 28.948 68.4168 30.565Z" fill="#EFEFEF"/>
<path d="M88.8968 33.274C86.7968 32.56 84.5498 30.439 84.5498 27.541V25.861H82.6598V27.604C82.6598 30.502 80.7278 32.707 78.1028 33.82L79.2368 35.29C81.2318 34.345 83.1008 32.623 83.6468 30.691C84.4238 32.476 86.1458 33.988 87.8048 34.744L88.8968 33.274ZM92.9078 39.763C92.9078 37.558 90.5978 36.172 86.7128 36.172C82.8278 36.172 80.5178 37.558 80.5178 39.763C80.5178 41.989 82.8278 43.354 86.7128 43.354C90.5978 43.354 92.9078 41.989 92.9078 39.763ZM86.7128 37.705C89.3588 37.705 90.9968 38.461 90.9968 39.763C90.9968 41.065 89.3588 41.842 86.7128 41.842C84.0668 41.842 82.4498 41.065 82.4498 39.763C82.4498 38.461 84.0668 37.705 86.7128 37.705ZM95.3858 31.342V29.809H92.6558V25H90.7868V36.193H92.6558V31.342H95.3858Z" fill="#EFEFEF"/>
<path d="M112.8 40.687V39.154H104.4V32.98H102.531V39.154H96.2307V40.687H112.8ZM110.658 26.701H97.9317V28.213H108.747V30.418C108.747 32.581 108.495 35.143 108.096 36.718C108.705 36.802 109.293 36.907 109.881 37.012C110.406 34.786 110.616 32.455 110.658 29.515V26.701Z" fill="#EFEFEF"/>
<path d="M130.55 35.29V33.778H113.981V35.29H130.55ZM128.597 40.036C128.597 37.936 126.287 36.739 122.255 36.739C118.244 36.739 115.934 37.999 115.934 40.036C115.934 42.094 118.244 43.333 122.255 43.333C126.287 43.333 128.597 42.115 128.597 40.036ZM122.255 38.251C125.006 38.251 126.707 38.923 126.707 40.036C126.707 41.191 125.006 41.821 122.255 41.821C119.546 41.821 117.845 41.191 117.845 40.036C117.845 38.923 119.546 38.251 122.255 38.251ZM128.534 31.951V30.439H117.824V27.289H128.408V25.777H115.976V31.951H128.534Z" fill="#EFEFEF"/>
<path d="M148.636 31.867V30.334H145.906V25H144.037V36.403H145.906V31.867H148.636ZM139.585 26.827V25.315H134.251V26.827H139.585ZM142.189 29.494V28.003H131.626V29.494H142.189ZM141.139 33.337C141.139 31.468 139.312 30.271 136.897 30.271C134.44 30.271 132.655 31.468 132.655 33.337C132.655 35.164 134.461 36.382 136.897 36.382C139.312 36.382 141.139 35.143 141.139 33.337ZM139.291 33.337C139.291 34.303 138.178 34.954 136.897 34.954C135.616 34.954 134.482 34.303 134.482 33.337C134.482 32.35 135.595 31.699 136.897 31.699C138.178 31.699 139.291 32.35 139.291 33.337ZM133.978 37.369V38.881H144.058V43.375H145.906V37.369H133.978Z" fill="#EFEFEF"/>
<path d="M166.049 40.687V39.154H159.875V33.085H158.027V39.154H155.339V33.085H153.47V39.154H149.48V40.687H166.049ZM164.117 27.016H151.181V28.528H162.227C162.248 31.363 162.059 34.555 161.513 36.76L163.319 37.054C163.928 34.534 164.117 31.321 164.117 27.016Z" fill="#EFEFEF"/>
<path d="M40.393 70.889C40.393 68.726 38.083 67.403 34.03 67.403C29.998 67.403 27.688 68.726 27.688 70.889C27.688 73.01 29.998 74.333 34.03 74.333C38.083 74.333 40.393 73.01 40.393 70.889ZM34.807 61.565C34.807 58.94 32.644 57.155 30.061 57.155C27.436 57.155 25.294 58.961 25.294 61.565C25.294 64.232 27.457 65.912 30.061 65.912C32.665 65.912 34.807 64.211 34.807 61.565ZM35.311 64.337H38.419V67.382H40.288V56H38.419V58.415H35.311C35.311 58.94 35.332 59.465 35.332 59.99H38.419V62.783H35.332C35.332 63.287 35.311 63.812 35.311 64.337ZM38.461 70.889C38.461 72.107 36.823 72.842 34.03 72.842C31.279 72.842 29.641 72.107 29.641 70.889C29.641 69.65 31.279 68.894 34.03 68.894C36.823 68.894 38.461 69.65 38.461 70.889ZM32.917 61.565C32.917 63.224 31.762 64.4 30.061 64.4C28.36 64.4 27.163 63.224 27.163 61.544C27.163 59.948 28.36 58.751 30.061 58.751C31.825 58.751 32.917 59.948 32.917 61.565Z" fill="#EFEFEF"/>
<path d="M53.3969 64.274C51.2969 63.56 49.0499 61.439 49.0499 58.541V56.861H47.1599V58.604C47.1599 61.502 45.2279 63.707 42.6029 64.82L43.7369 66.29C45.7319 65.345 47.6009 63.623 48.1469 61.691C48.9239 63.476 50.6459 64.988 52.3049 65.744L53.3969 64.274ZM57.4079 70.763C57.4079 68.558 55.0979 67.172 51.2129 67.172C47.3279 67.172 45.0179 68.558 45.0179 70.763C45.0179 72.989 47.3279 74.354 51.2129 74.354C55.0979 74.354 57.4079 72.989 57.4079 70.763ZM51.2129 68.705C53.8589 68.705 55.4969 69.461 55.4969 70.763C55.4969 72.065 53.8589 72.842 51.2129 72.842C48.5669 72.842 46.9499 72.065 46.9499 70.763C46.9499 69.461 48.5669 68.705 51.2129 68.705ZM59.8859 62.342V60.809H57.1559V56H55.2869V67.193H57.1559V62.342H59.8859Z" fill="#EFEFEF"/>
<path d="M75.7458 74.354V56H73.8978V74.354H75.7458ZM70.4958 69.671V57.848H61.6968V69.671H70.4958ZM68.6478 68.138H63.5448V59.36H68.6478V68.138Z" fill="#EFEFEF"/>
<path d="M93.5378 74.354V56H91.6688V74.354H93.5378ZM81.2318 68.18V59.297H88.1828V57.785H79.4048V69.776H81.4628C84.8018 69.776 88.0148 69.545 89.9048 69.146L89.6528 67.613C87.3218 68.075 83.9198 68.18 81.2318 68.18Z" fill="#EFEFEF"/>
<path d="M96.3147 63.791C96.3147 67.424 97.7847 70.28 101.04 70.28C104.064 70.28 105.492 67.802 105.702 64.526H109.419V74.354H111.288V56H109.419V62.951H105.702C105.471 59.717 104.022 57.302 101.04 57.302C97.7847 57.302 96.3147 60.158 96.3147 63.791ZM103.875 63.812C103.875 66.626 102.888 68.684 101.04 68.684C99.1707 68.684 98.2257 66.626 98.2257 63.812C98.2257 60.956 99.1707 58.898 101.04 58.898C102.888 58.898 103.875 60.956 103.875 63.812Z" fill="#EFEFEF"/>
<path d="M131.075 65.219V63.686H128.261V56H126.413V74.354H128.261V65.219H131.075ZM125.426 69.86L125.195 68.411C123.641 68.642 121.646 68.768 119.315 68.873V63.119H117.509V68.936C116.165 68.978 114.674 68.978 113.561 68.978L113.834 70.532C115.325 70.532 117.257 70.49 119.105 70.406C120.995 70.301 123.683 70.112 125.426 69.86ZM124.229 57.848H114.653V59.36H122.36C122.36 61.796 122.192 64.463 121.835 66.038L123.62 66.269C124.04 64.463 124.229 61.166 124.229 57.848Z" fill="#EFEFEF"/>
<path d="M39.952 91.158C39.952 88.911 37.558 87.567 33.505 87.567C29.494 87.567 27.079 88.911 27.079 91.158C27.079 93.216 29.095 94.497 32.518 94.728L32.539 96.597H25.231V98.109H41.8V96.597H34.408V94.728C37.894 94.539 39.952 93.216 39.952 91.158ZM33.505 89.079C36.256 89.079 38.02 89.856 38.02 91.179C38.02 92.502 36.256 93.237 33.505 93.237C30.796 93.237 29.032 92.502 29.032 91.179C29.032 89.856 30.796 89.079 33.505 89.079ZM39.826 104.808V103.317H29.221V99.579H27.373V104.808H39.826Z" fill="#EFEFEF"/>
<path d="M53.8589 98.844C51.4019 99.327 48.1469 99.495 45.5009 99.474V95.295H52.0949V88.659H43.5899V90.171H50.2469V93.804H43.6529V101.007H45.8579C48.7559 101.007 52.0739 100.734 54.0479 100.398L53.8589 98.844ZM57.1559 87H55.3079V105.354H57.1559V95.82H60.0119V94.287H57.1559V87Z" fill="#EFEFEF"/>
<path d="M75.7878 100.335V87H73.9188V100.335H75.7878ZM76.2078 104.787V103.296H65.5818V99.075H63.7128V104.787H76.2078ZM66.0438 88.239C63.2298 88.239 61.1508 90.192 61.1508 92.838C61.1508 95.463 63.2298 97.29 66.0438 97.29C68.8788 97.29 70.9578 95.463 70.9578 92.817C70.9578 90.192 68.8788 88.239 66.0438 88.239ZM66.0438 89.835C67.8498 89.835 68.9838 91.074 68.9838 92.817C68.9838 94.497 67.8498 95.736 66.0438 95.736C64.3218 95.736 63.1038 94.476 63.1038 92.796C63.1038 91.095 64.3218 89.835 66.0438 89.835Z" fill="#EFEFEF"/>
<path d="M84.0814 90.108H88.1344V91.011C88.1344 93.573 85.9084 96.093 83.5354 96.954L84.6274 98.424C86.5384 97.647 88.5124 95.673 89.1004 93.909C89.8564 95.589 91.6414 97.248 93.2794 97.899L94.3084 96.408C92.2294 95.778 90.0244 93.573 90.0244 90.969V90.108H93.9724V88.575H84.0814V90.108ZM98.6344 100.398V87H96.7654V91.998H93.2374V93.51H96.7654V100.398H98.6344ZM99.0334 104.787V103.275H88.4074V99.096H86.5594V104.787H99.0334Z" fill="#EFEFEF"/>
<path d="M116.51 105.354V87H114.662V105.354H116.51ZM112.478 99.558C109.937 98.088 107.879 95.106 107.879 91.662V88.617H105.947V91.746C105.947 95.127 103.994 98.319 101.243 100.062L102.398 101.427C104.477 100.062 106.283 97.731 106.934 95.484C107.606 97.626 109.727 99.81 111.365 100.944L112.478 99.558Z" fill="#EFEFEF"/>
<path d="M118.762 105.837H120.316L121.618 101.595H119.497L118.762 105.837Z" fill="#EFEFEF"/>
<path d="M26.512 119.184H28.171V125.715H36.655V119.184H38.314V133.884H36.655V127.269H28.171V133.884H26.512V119.184Z" fill="#EFEFEF"/>
<path d="M41.3751 131.679H43.3071V133.884H41.3751V131.679Z" fill="#EFEFEF"/>
<path d="M52.2345 134.115C51.3245 134.115 50.4915 133.982 49.7355 133.716C48.9935 133.436 48.3495 133.03 47.8035 132.498C47.2715 131.952 46.8585 131.28 46.5645 130.482C46.2705 129.684 46.1235 128.767 46.1235 127.731V119.184H47.7825V127.626C47.7825 129.222 48.1745 130.447 48.9585 131.301C49.7565 132.155 50.8625 132.582 52.2765 132.582C53.6345 132.582 54.7125 132.176 55.5105 131.364C56.3085 130.552 56.7075 129.341 56.7075 127.731V119.184H58.3665V127.605C58.3665 128.683 58.2195 129.628 57.9255 130.44C57.6315 131.252 57.2115 131.931 56.6655 132.477C56.1335 133.023 55.4895 133.436 54.7335 133.716C53.9915 133.982 53.1585 134.115 52.2345 134.115Z" fill="#EFEFEF"/>
<path d="M61.3861 123.027H63.0031V124.917C63.3671 124.329 63.8431 123.832 64.4311 123.426C65.0191 123.006 65.7821 122.796 66.7201 122.796C67.3781 122.796 67.9591 122.901 68.4631 123.111C68.9811 123.321 69.4151 123.622 69.7651 124.014C70.1291 124.392 70.4021 124.847 70.5841 125.379C70.7801 125.911 70.8781 126.499 70.8781 127.143V133.884H69.2611V127.542C69.2611 126.534 69.0021 125.736 68.4841 125.148C67.9661 124.56 67.2241 124.266 66.2581 124.266C65.7961 124.266 65.3621 124.35 64.9561 124.518C64.5641 124.672 64.2211 124.903 63.9271 125.211C63.6331 125.505 63.4021 125.862 63.2341 126.282C63.0801 126.702 63.0031 127.164 63.0031 127.668V133.884H61.3861V123.027Z" fill="#EFEFEF"/>
<path d="M77.3295 134.073C76.8955 134.073 76.4895 134.017 76.1115 133.905C75.7335 133.793 75.4045 133.618 75.1245 133.38C74.8585 133.128 74.6485 132.806 74.4945 132.414C74.3405 132.022 74.2635 131.553 74.2635 131.007V124.455H72.7515V123.027H74.2635V119.751H75.8805V123.027H79.3245V124.455H75.8805V130.797C75.8805 131.469 76.0485 131.938 76.3845 132.204C76.7205 132.47 77.1615 132.603 77.7075 132.603C77.9875 132.603 78.2465 132.575 78.4845 132.519C78.7365 132.463 79.0025 132.365 79.2825 132.225V133.611C79.0025 133.765 78.7015 133.877 78.3795 133.947C78.0715 134.031 77.7215 134.073 77.3295 134.073Z" fill="#EFEFEF"/>
<path d="M85.1058 132.813C85.6098 132.813 86.0788 132.743 86.5128 132.603C86.9468 132.463 87.3248 132.267 87.6468 132.015C87.9828 131.749 88.2418 131.441 88.4238 131.091C88.6198 130.727 88.7178 130.328 88.7178 129.894V128.886C88.3118 128.774 87.8498 128.669 87.3318 128.571C86.8138 128.473 86.2188 128.424 85.5468 128.424C84.5388 128.424 83.7548 128.627 83.1948 129.033C82.6488 129.425 82.3758 129.95 82.3758 130.608V130.65C82.3758 130.986 82.4458 131.294 82.5858 131.574C82.7398 131.84 82.9428 132.064 83.1948 132.246C83.4468 132.428 83.7338 132.568 84.0558 132.666C84.3918 132.764 84.7418 132.813 85.1058 132.813ZM84.7908 134.115C84.2868 134.115 83.7898 134.045 83.2998 133.905C82.8098 133.765 82.3758 133.555 81.9978 133.275C81.6198 132.981 81.3118 132.624 81.0738 132.204C80.8498 131.784 80.7378 131.294 80.7378 130.734V130.692C80.7378 130.104 80.8498 129.593 81.0738 129.159C81.2978 128.711 81.6128 128.34 82.0188 128.046C82.4388 127.752 82.9288 127.528 83.4888 127.374C84.0628 127.22 84.6928 127.143 85.3788 127.143C86.0788 127.143 86.6808 127.185 87.1848 127.269C87.7028 127.353 88.2068 127.465 88.6968 127.605V127.269C88.6968 126.303 88.4168 125.575 87.8568 125.085C87.2968 124.581 86.5058 124.329 85.4838 124.329C84.8398 124.329 84.2518 124.399 83.7198 124.539C83.2018 124.679 82.6908 124.868 82.1868 125.106L81.7038 123.783C82.3058 123.503 82.9148 123.279 83.5308 123.111C84.1468 122.943 84.8538 122.859 85.6518 122.859C87.1918 122.859 88.3608 123.258 89.1588 124.056C89.9148 124.812 90.2928 125.876 90.2928 127.248V133.884H88.6968V132.267C88.3188 132.757 87.8078 133.191 87.1638 133.569C86.5338 133.933 85.7428 134.115 84.7908 134.115Z" fill="#EFEFEF"/>
<path d="M97.9809 134.136C97.1829 134.136 96.4409 133.989 95.7549 133.695C95.0829 133.387 94.4949 132.981 93.9909 132.477C93.5009 131.959 93.1159 131.357 92.8359 130.671C92.5559 129.985 92.4159 129.264 92.4159 128.508V128.466C92.4159 127.696 92.5559 126.968 92.8359 126.282C93.1159 125.596 93.5009 124.994 93.9909 124.476C94.4949 123.958 95.0829 123.552 95.7549 123.258C96.4409 122.95 97.1829 122.796 97.9809 122.796C98.4989 122.796 98.9679 122.845 99.3879 122.943C99.8079 123.041 100.193 123.181 100.543 123.363C100.893 123.531 101.215 123.734 101.509 123.972C101.803 124.21 102.076 124.462 102.328 124.728L101.257 125.862C100.823 125.414 100.347 125.029 99.8289 124.707C99.3249 124.385 98.7019 124.224 97.9599 124.224C97.4139 124.224 96.9029 124.336 96.4269 124.56C95.9509 124.77 95.5379 125.064 95.1879 125.442C94.8379 125.82 94.5649 126.268 94.3689 126.786C94.1729 127.29 94.0749 127.836 94.0749 128.424V128.466C94.0749 129.054 94.1729 129.607 94.3689 130.125C94.5789 130.629 94.8589 131.077 95.2089 131.469C95.5729 131.847 95.9929 132.148 96.4689 132.372C96.9589 132.582 97.4909 132.687 98.0649 132.687C98.7649 132.687 99.3809 132.533 99.9129 132.225C100.459 131.917 100.949 131.532 101.383 131.07L102.412 132.036C101.866 132.652 101.243 133.156 100.543 133.548C99.8569 133.94 99.0029 134.136 97.9809 134.136Z" fill="#EFEFEF"/>
<path d="M108.088 134.073C107.654 134.073 107.248 134.017 106.87 133.905C106.492 133.793 106.163 133.618 105.883 133.38C105.617 133.128 105.407 132.806 105.253 132.414C105.099 132.022 105.022 131.553 105.022 131.007V124.455H103.51V123.027H105.022V119.751H106.639V123.027H110.083V124.455H106.639V130.797C106.639 131.469 106.807 131.938 107.143 132.204C107.479 132.47 107.92 132.603 108.466 132.603C108.746 132.603 109.005 132.575 109.243 132.519C109.495 132.463 109.761 132.365 110.041 132.225V133.611C109.761 133.765 109.46 133.877 109.138 133.947C108.83 134.031 108.48 134.073 108.088 134.073Z" fill="#EFEFEF"/>
</svg>
